#!OML:ASF H:\Not Pregnant\Project 1\Capture day 1\Session 1\non-pregnant.ASF
:FULLY-SPECIFIED
:DEGREES
1234
root 3.02845 15.5495 37.5128 14.7399 2.68034 352.913
lowerback -2.63375 3.7398 8.66346
upperback -8.33057 5.10435 -1.56159
thorax -6.43636 1.95914 -6.60484
lowerneck 8.12761 -6.52047 -31.284
upperneck 4.31079 -13.4935 38.3692
head 5.17459 -7.63606 19.8348
rclavicle -8.59744e-015 -1.82882e-014
rhumerus -40.3411 -0.295477 -77.1655
rradius 62.5553
rwrist -10.7064
rhand -14.6953 -21.4925
rfingers 7.12502
rthumb 11.4586 -51.1594
lclavicle -8.59744e-015 -1.82882e-014
lhumerus -39.2404 -5.3653 83.098
lradius 71.606
lwrist 43.1214
lhand -18.2784 2.88809
lfingers 7.12502
lthumb 8.00167 32.7166
rfemur -10.0996 -2.12665 24.8717
rtibia 18.9147
rfoot -17.1547 -9.58738
rtoes -30.0288
lfemur -40.3881 1.27556 -1.43267
ltibia 32.9029
lfoot -11.0136 10.5232
ltoes -24.7832
1235
root 3.08797 15.5407 37.5948 14.7344 2.83058 352.892
lowerback -2.77651 3.75412 8.63368
upperback -8.41032 5.11277 -1.57282
thorax -6.44121 1.96257 -6.5931
lowerneck 8.36665 -6.4787 -31.3158
upperneck 4.39094 -13.518 38.355
head 5.15972 -7.67015 19.8525
rclavicle -2.21893e-014 -1.66979e-014
rhumerus -40.419 -0.208949 -77.202
rradius 62.616
rwrist -10.547
rhand -14.7864 -21.4866
rfingers 7.12502
rthumb 11.3707 -51.1584
lclavicle -2.21893e-014 -1.66979e-014
lhumerus -39.4492 -5.27098 83.084
lradius 71.4884
lwrist 43.1862
lhand -18.3168 2.87391
lfingers 7.12502
lthumb 7.96461 32.7039
rfemur -9.43012 -1.93935 24.6875
rtibia 18.3105
rfoot -16.8893 -9.92421
rtoes -30.5113
lfemur -40.5353 1.40659 -1.58713
ltibia 32.7247
lfoot -10.6836 11.1404
ltoes -24.4993
1236
root 3.15076 15.5314 37.6796 14.7325 2.98638 352.874
lowerback -2.92352 3.76868 8.6173
upperback -8.49903 5.1217 -1.58694
thorax -6.45244 1.9647 -6.59207
lowerneck 8.5848 -6.44786 -31.3416
upperneck 4.48979 -13.5567 38.3301
head 5.15858 -7.70895 19.8598
rclavicle -7.0171e-014 -9.54166e-015
rhumerus -40.5234 -0.125171 -77.2383
rradius 62.6946
rwrist -10.4079
rhand -14.8568 -21.5256
rfingers 7.12502
rthumb 11.3029 -51.201
lclavicle -7.0171e-014 -9.54166e-015
lhumerus -39.6537 -5.18137 83.0683
lradius 71.3492
lwrist 43.2516
lhand -18.3511 2.87263
lfingers 7.12502
lthumb 7.93148 32.7038
rfemur -8.73293 -1.76377 24.4914
rtibia 17.6738
rfoot -16.6059 -10.2497
rtoes -31.0005
lfemur -40.7155 1.63935 -1.86643
ltibia 32.6801
lfoot -10.348 11.6223
ltoes -24.4231
1237
root 3.21642 15.5212 37.765 14.7257 3.14548 352.856
lowerback -3.09691 3.78436 8.62161
upperback -8.54172 5.1273 -1.6055
thorax -6.39708 1.96881 -6.60276
lowerneck 8.72611 -6.44956 -31.356
upperneck 4.55813 -13.6165 38.3156
head 5.17421 -7.75172 19.8599
rclavicle 2.72335e-014 4.77083e-015
rhumerus -40.551 -0.0718968 -77.2711
rradius 62.7756
rwrist -10.2606
rhand -14.8988 -21.5757
rfingers 7.12502
rthumb 11.2623 -51.2534
lclavicle 2.72335e-014 4.77083e-015
lhumerus -39.762 -5.08549 83.0432
lradius 71.1954
lwrist 43.3071
lhand -18.3739 2.8771
lfingers 7.12502
lthumb 7.9095 32.7091
rfemur -8.00278 -1.5829 24.2873
rtibia 16.994
rfoot -16.2842 -10.5734
rtoes -31.5005
lfemur -40.9227 1.95691 -2.25578
ltibia 32.7717
lfoot -9.95123 11.8811
ltoes -24.4913
1238
root 3.28586 15.5116 37.8545 14.7153 3.31299 352.833
lowerback -3.3082 3.7997 8.66116
upperback -8.53644 5.12639 -1.62928
thorax -6.26615 1.9729 -6.63319
lowerneck 8.73402 -6.50754 -31.3373
upperneck 4.62222 -13.7201 38.2908
head 5.23045 -7.80329 19.8283
rclavicle -2.23136e-014 9.54166e-015
rhumerus -40.4921 -0.0462382 -77.3034
rradius 62.8517
rwrist -10.1201
rhand -14.8841 -21.6541
rfingers 7.12502
rthumb 11.2765 -51.331
lclavicle -2.23136e-014 9.54166e-015
lhumerus -39.7605 -4.99058 83.0037
lradius 71.0202
lwrist 43.3587
lhand -18.4032 2.89591
lfingers 7.12502
lthumb 7.88115 32.729
rfemur -7.23382 -1.44504 24.0768
rtibia 16.2857
rfoot -15.9565 -10.8586
rtoes -32.0201
lfemur -41.1329 2.3276 -2.72723
ltibia 32.9924
lfoot -9.47788 11.7925
ltoes -24.4233
1239
root 3.35791 15.5017 37.9456 14.699 3.46485 352.811
lowerback -3.48893 3.81629 8.69788
upperback -8.53397 5.13007 -1.6543
thorax -6.15523 1.97821 -6.66592
lowerneck 8.69808 -6.58478 -31.3003
upperneck 4.69509 -13.8401 38.2541
head 5.3019 -7.85814 19.7795
rclavicle -2.1419e-014 -1.59028e-014
rhumerus -40.4337 -0.0190926 -77.3361
rradius 62.9324
rwrist -9.99453
rhand -14.8181 -21.7753
rfingers 7.12502
rthumb 11.3402 -51.4487
lclavicle -2.1419e-014 -1.59028e-014
lhumerus -39.7571 -4.89735 82.9597
lradius 70.8572
lwrist 43.3953
lhand -18.4264 2.91508
lfingers 7.12502
lthumb 7.85882 32.749
rfemur -6.44633 -1.28085 23.8537
rtibia 15.5665
rfoot -15.5971 -11.1426
rtoes -32.553
lfemur -41.3226 2.71758 -3.24814
ltibia 33.3273
lfoot -8.92446 11.279
ltoes -23.9914
1240
root 3.4321 15.4912 38.0354 14.6763 3.59925 352.81
lowerback -3.6426 3.83269 8.7156
upperback -8.50874 5.13448 -1.6873
thorax -6.03525 1.98597 -6.69742
lowerneck 8.60439 -6.69111 -31.2388
upperneck 4.74826 -13.9806 38.2105
head 5.3852 -7.91707 19.7107
rclavicle 5.31749e-015 1.90833e-014
rhumerus -40.3261 -0.00112724 -77.3732
rradius 63.006
rwrist -9.85951
rhand -14.7454 -21.884
rfingers 7.12502
rthumb 11.4103 -51.5535
lclavicle 5.31749e-015 1.90833e-014
lhumerus -39.7161 -4.80988 82.9088
lradius 70.7349
lwrist 43.4235
lhand -18.4328 2.92303
lfingers 7.12502
lthumb 7.85261 32.7572
rfemur -5.66762 -1.06947 23.601
rtibia 14.8687
rfoot -15.2003 -11.4409
rtoes -33.0888
lfemur -41.4778 3.05603 -3.78928
ltibia 33.7565
lfoot -8.3297 10.3652
ltoes -22.9756
1241
root 3.5086 15.4805 38.1272 14.6472 3.70342 352.832
lowerback -3.7425 3.85054 8.69526
upperback -8.51666 5.14742 -1.72388
thorax -5.98273 1.99541 -6.7173
lowerneck 8.52812 -6.792 -31.1681
upperneck 4.82015 -14.1198 38.1525
head 5.46671 -7.97594 19.6334
rclavicle 1.31695e-014 -3.97569e-015
rhumerus -40.279 0.042083 -77.4169
rradius 63.0718
rwrist -9.72034
rhand -14.6711 -22.0002
rfingers 7.12502
rthumb 11.4819 -51.6657
lclavicle 1.31695e-014 -3.97569e-015
lhumerus -39.7325 -4.73566 82.8606
lradius 70.6403
lwrist 43.4439
lhand -18.4431 2.92299
lfingers 7.12502
lthumb 7.84268 32.7575
rfemur -4.93066 -0.817463 23.3106
rtibia 14.2793
rfoot -14.8193 -11.7508
rtoes -33.6395
lfemur -41.5699 3.31736 -4.32653
ltibia 34.2518
lfoot -7.78599 9.23993
ltoes -21.4288
1242
root 3.58719 15.469 38.2174 14.6055 3.7976 352.874
lowerback -3.77743 3.8698 8.6547
upperback -8.57232 5.17081 -1.76445
thorax -6.01851 2.00481 -6.73766
lowerneck 8.58796 -6.84652 -31.1187
upperneck 4.87262 -14.2246 38.1089
head 5.50402 -8.03081 19.5841
rclavicle -8.64713e-015 -4.77083e-015
rhumerus -40.3348 0.108279 -77.4609
rradius 63.1367
rwrist -9.58975
rhand -14.638 -22.0954
rfingers 7.12502
rthumb 11.5139 -51.7592
lclavicle -8.64713e-015 -4.77083e-015
lhumerus -39.866 -4.69669 82.8275
lradius 70.6142
lwrist 43.4647
lhand -18.4717 2.93709
lfingers 7.12502
lthumb 7.8151 32.7727
rfemur -4.26874 -0.528769 22.9935
rtibia 13.8534
rfoot -14.46 -12.0837
rtoes -34.2172
lfemur -41.6103 3.46854 -4.8345
ltibia 34.7935
lfoot -7.31712 8.14488
ltoes -19.6328
1243
root 3.66655 15.457 38.3061 14.5531 3.85619 352.951
lowerback -3.78589 3.89516 8.55499
upperback -8.63743 5.20487 -1.8099
thorax -6.08094 2.02128 -6.73252
lowerneck 8.74582 -6.86769 -31.0877
upperneck 4.87582 -14.2979 38.0921
head 5.49938 -8.08026 19.5642
rclavicle 1.86858e-014 1.98785e-014
rhumerus -40.4218 0.179937 -77.5039
rradius 63.1891
rwrist -9.48299
rhand -14.6441 -22.16
rfingers 7.12502
rthumb 11.508 -51.8241
lclavicle 1.86858e-014 1.98785e-014
lhumerus -40.0056 -4.67172 82.8025
lradius 70.602
lwrist 43.4787
lhand -18.5138 2.96469
lfingers 7.12502
lthumb 7.7744 32.8018
rfemur -3.69951 -0.135718 22.6327
rtibia 13.6207
rfoot -14.1193 -12.4661
rtoes -34.7908
lfemur -41.6044 3.52106 -5.32035
ltibia 35.3654
lfoot -6.98498 7.27723
ltoes -17.9487
1244
root 3.74763 15.4442 38.3946 14.486 3.9083 353.044
lowerback -3.74464 3.92411 8.43607
upperback -8.76217 5.25106 -1.85736
thorax -6.23611 2.03815 -6.72603
lowerneck 9.09319 -6.82319 -31.0933
upperneck 4.86448 -14.3252 38.0962
head 5.43886 -8.12565 19.5867
rclavicle -5.69021e-014 -1.98785e-014
rhumerus -40.643 0.26516 -77.5412
rradius 63.2383
rwrist -9.4151
rhand -14.6551 -22.2371
rfingers 7.12502
rthumb 11.4974 -51.9018
lclavicle -5.69021e-014 -1.98785e-014
lhumerus -40.2736 -4.69759 82.7967
lradius 70.6314
lwrist 43.5006
lhand -18.5718 3.0148
lfingers 7.12502
lthumb 7.71843 32.8539
rfemur -3.22928 0.306388 22.2479
rtibia 13.6163
rfoot -13.849 -12.8676
rtoes -35.3498
lfemur -41.5661 3.50013 -5.7804
ltibia 35.9545
lfoot -6.84847 6.72751
ltoes -16.8618
1245
root 3.83067 15.4307 38.4822 14.4067 3.96829 353.168
lowerback -3.69078 3.94264 8.29811
upperback -8.84567 5.28159 -1.91426
thorax -6.3566 2.05132 -6.71815
lowerneck 9.36223 -6.80883 -31.0848
upperneck 4.83094 -14.3717 38.1127
head 5.39669 -8.17377 19.6033
rclavicle 3.93594e-014 1.59028e-015
rhumerus -40.7765 0.327325 -77.5826
rradius 63.2577
rwrist -9.38754
rhand -14.6628 -22.3158
rfingers 7.12502
rthumb 11.49 -51.9809
lclavicle 3.93594e-014 1.59028e-015
lhumerus -40.4279 -4.72219 82.7803
lradius 70.6385
lwrist 43.5215
lhand -18.6216 3.0613
lfingers 7.12502
lthumb 7.67035 32.9022
rfemur -2.8598 0.760545 21.8213
rtibia 13.8423
rfoot -13.6457 -13.2672
rtoes -35.9126
lfemur -41.5128 3.4346 -6.255
ltibia 36.547
lfoot -6.89495 6.45718
ltoes -16.4789
1246
root 3.91502 15.4169 38.5691 14.3206 4.02924 353.336
lowerback -3.65866 3.95451 8.12374
upperback -8.87846 5.29756 -1.98478
thorax -6.41273 2.06418 -6.70008
lowerneck 9.58475 -6.81645 -31.064
upperneck 4.75248 -14.4284 38.1469
head 5.35702 -8.22331 19.6191
rclavicle 7.65321e-015 1.03368e-014
rhumerus -40.8143 0.355339 -77.6276
rradius 63.2356
rwrist -9.36161
rhand -14.6675 -22.3538
rfingers 7.12502
rthumb 11.4854 -52.0192
lclavicle 7.65321e-015 1.03368e-014
lhumerus -40.4623 -4.75448 82.7526
lradius 70.6274
lwrist 43.5517
lhand -18.6609 3.10141
lfingers 7.12502
lthumb 7.63247 32.9437
rfemur -2.60353 1.24532 21.3439
rtibia 14.3107
rfoot -13.5087 -13.6839
rtoes -36.4785
lfemur -41.4445 3.34127 -6.76094
ltibia 37.1285
lfoot -7.09949 6.35048
ltoes -16.7075
